<svg xmlns="http://www.w3.org/2000/svg" viewBox="0 0 279.99999999999994 279.99999999999994" preserveAspectRatio="xMidYMid meet" class="css-8aabad" id="facgaccb"><defs id="SvgjsDefs1582"><linearGradient id="SvgjsLinearGradient1589"><stop id="SvgjsStop1590" stop-color="#905e26" offset="0"></stop><stop id="SvgjsStop1591" stop-color="#f5ec9b" offset="0.5"></stop><stop id="SvgjsStop1592" stop-color="#905e26" offset="1"></stop></linearGradient><linearGradient id="SvgjsLinearGradient1593"><stop id="SvgjsStop1594" stop-color="#905e26" offset="0"></stop><stop id="SvgjsStop1595" stop-color="#f5ec9b" offset="0.5"></stop><stop id="SvgjsStop1596" stop-color="#905e26" offset="1"></stop></linearGradient><linearGradient id="SvgjsLinearGradient1597"><stop id="SvgjsStop1598" stop-color="#905e26" offset="0"></stop><stop id="SvgjsStop1599" stop-color="#f5ec9b" offset="0.5"></stop><stop id="SvgjsStop1600" stop-color="#905e26" offset="1"></stop></linearGradient></defs><g id="SvgjsG1583" featurekey="rootContainer" transform="matrix(2.676864088544151,0,0,2.676864088544151,0.00001668929931981252,0.00001668929931981252)" fill="#fff"><path xmlns="http://www.w3.org/2000/svg" d="M52.3 104.6a52.3 52.3 0 1 1 52.3-52.3 52.4 52.4 0 0 1-52.3 52.3zm0-102.3a50 50 0 1 0 50 50 50 50 0 0 0-50-50z"></path></g><g id="SvgjsG1584" featurekey="symbolFeature-0" transform="matrix(1.1316973604060476,0,0,1.1316973604060476,83.41493339388762,56.512411073490135)" fill="#fff"><g xmlns="http://www.w3.org/2000/svg"><path d="M51.753,41.878c-0.323-1.414-1.731-2.298-3.146-1.974l-28.491,6.539c-1.414,0.324-2.296,1.734-1.971,3.148l6.466,28.172   c-1.06-0.151-2.174-0.116-3.295,0.141c-4.542,1.043-7.442,5.301-6.475,9.513c0.966,4.21,5.433,6.777,9.975,5.734   c4.315-0.989,7.142-4.881,6.586-8.878c0.004-0.214-0.007-0.428-0.057-0.645l-5.307-23.122l23.372-5.364l3.693,16.099   c-1.074-0.159-2.209-0.126-3.348,0.136c-4.542,1.043-7.442,5.301-6.476,9.512c0.967,4.212,5.433,6.779,9.976,5.736   c4.233-0.972,7.035-4.735,6.617-8.649c0.034-0.288,0.031-0.586-0.038-0.887L51.753,41.878z M24.909,55.587l-1.058-4.611   l23.371-5.363l1.058,4.61L24.909,55.587z"></path><path d="M85.322,11.82c0.156-0.953-0.487-1.854-1.442-2.012L64.652,6.64c-0.954-0.158-1.854,0.489-2.012,1.442l-3.134,19.012   c-0.616-0.361-1.313-0.622-2.068-0.747c-3.065-0.505-5.93,1.39-6.398,4.23c-0.469,2.842,1.637,5.555,4.702,6.06   c2.913,0.48,5.64-1.205,6.308-3.812c0.057-0.13,0.104-0.266,0.127-0.412l2.572-15.604l15.773,2.601l-1.791,10.864   c-0.625-0.371-1.331-0.637-2.1-0.764c-3.066-0.505-5.932,1.389-6.4,4.23c-0.468,2.841,1.638,5.555,4.704,6.06   c2.855,0.471,5.537-1.142,6.269-3.662c0.093-0.168,0.168-0.354,0.201-0.556L85.322,11.82z M65.297,13.49l0.513-3.112l15.773,2.601   l-0.514,3.111L65.297,13.49z"></path></g></g><g id="SvgjsG1585" featurekey="nameFeature-0" transform="matrix(1.1967304657526843,0,0,1.1967304657526843,38.563923669355,167.6392355522589)" fill="#fff"><path d="M1.2 40 l0 -4.48 l0.84 -0.56 l0 -17.92 l-0.84 -0.56 l0 -4.48 l12.52 0 l3.72 3.72 l0 8.24 l-2.04 2.04 l2.04 2.04 l0 8.24 l-3.72 3.72 l-12.52 0 z M7.08 34.96 l4.56 0 l0.76 -0.76 l0 -4.08 l-1.6 -1.6 l-3.72 0 l0 6.44 z M7.08 23.48 l3.72 0 l1.6 -1.6 l0 -4.08 l-0.76 -0.76 l-4.56 0 l0 6.44 z M20.418 40 l0 -4.48 l0.84 -0.56 l0 -17.92 l-0.84 -0.56 l0 -4.48 l6.72 0 l0 4.48 l-0.84 0.56 l0 17.92 l2.8 0 l0.56 -0.84 l4.48 0 l0 5.88 l-13.72 0 z M37.116 40 l0 -4.48 l0.84 -0.56 l0 -17.92 l-0.84 -0.56 l0 -4.48 l6.72 0 l0 4.48 l-0.84 0.56 l0 17.92 l0.84 0.56 l0 4.48 l-6.72 0 z M46.814 40 l0 -4.48 l0.84 -0.56 l0 -17.92 l-0.84 -0.56 l0 -4.48 l6.2 0 l5.84 14.96 l0 -9.92 l-0.84 -0.56 l0 -4.48 l6.72 0 l0 4.48 l-0.84 0.56 l0 22.96 l-5.36 0 l-5.84 -14.96 l0 9.92 l0.84 0.56 l0 4.48 l-6.72 0 z M67.712 40 l0 -4.48 l0.84 -0.56 l0 -17.92 l-0.84 -0.56 l0 -4.48 l13.36 0 l3.72 3.72 l0 20.56 l-3.72 3.72 l-13.36 0 z M73.592 34.96 l5.4 0 l0.76 -0.76 l0 -16.4 l-0.76 -0.76 l-5.4 0 l0 17.92 z M100.588 40 l0 -4.48 l0.84 -0.56 l0 -17.92 l-0.84 0 l-0.56 0.84 l-4.48 0 l0 -5.88 l16.8 0 l0 5.88 l-4.48 0 l-0.56 -0.84 l-0.84 0 l0 17.92 l0.84 0.56 l0 4.48 l-6.72 0 z M115.32600000000001 40 l0 -4.48 l0.84 -0.56 l0 -17.92 l-0.84 -0.56 l0 -4.48 l14.56 0 l0 5.88 l-4.48 0 l-0.56 -0.84 l-3.64 0 l0 6.44 l6.44 0 l0 5.04 l-6.44 0 l0 6.44 l3.64 0 l0.56 -0.84 l4.48 0 l0 5.88 l-14.56 0 z M136.584 40 l-3.72 -3.72 l0 -5.24 l5.04 0 l0 3.16 l0.76 0.76 l4.08 0 l0.76 -0.76 l0 -4.92 l-0.76 -0.76 l-6.16 0 l-3.72 -3.72 l0 -9.08 l3.72 -3.72 l8.24 0 l3.72 3.72 l0 5.24 l-5.04 0 l0 -3.16 l-0.76 -0.76 l-4.08 0 l-0.76 0.76 l0 4.92 l0.76 0.76 l6.16 0 l3.72 3.72 l0 9.08 l-3.72 3.72 l-8.24 0 z M156.562 40 l0 -4.48 l0.84 -0.56 l0 -17.92 l-0.84 0 l-0.56 0.84 l-4.48 0 l0 -5.88 l16.8 0 l0 5.88 l-4.48 0 l-0.56 -0.84 l-0.84 0 l0 17.92 l0.84 0.56 l0 4.48 l-6.72 0 z"></path></g></svg>